<svg width="24" height="24" viewBox="0 0 24 24" fill="none" xmlns="http://www.w3.org/2000/svg">
<path d="M16.3329 2.7998H7.65928C7.37698 2.79976 7.09969 2.87442 6.85556 3.01619C6.61144 3.15796 6.40916 3.36179 6.26928 3.607L1.93288 11.207C1.79511 11.4485 1.72266 11.7218 1.72266 11.9998C1.72266 12.2778 1.79511 12.5511 1.93288 12.7926L6.26928 20.3926C6.40916 20.6378 6.61144 20.8417 6.85556 20.9834C7.09969 21.1252 7.37698 21.1998 7.65928 21.1998H16.3329C16.6148 21.1998 16.8918 21.1253 17.1356 20.9838C17.3795 20.8423 17.5817 20.6389 17.7217 20.3942L22.0685 12.7942C22.2068 12.5523 22.2796 12.2785 22.2796 11.9998C22.2796 11.7211 22.2068 11.4473 22.0685 11.2054L17.7217 3.6054C17.5817 3.36073 17.3796 3.15736 17.1358 3.0159C16.892 2.87443 16.6152 2.79989 16.3333 2.7998H16.3329ZM7.65928 4.3998H16.3329L20.6797 11.9998L16.3329 19.5998H7.65928L3.32248 11.9998L7.65928 4.3998Z" fill="black" fill-opacity="0.85"/>
<path d="M11.9984 8.3999C11.5257 8.3999 11.0575 8.49302 10.6208 8.67394C10.184 8.85485 9.78714 9.12003 9.45285 9.45432C9.11856 9.78861 8.85339 10.1855 8.67247 10.6222C8.49155 11.059 8.39844 11.5271 8.39844 11.9999C8.39844 12.4727 8.49155 12.9408 8.67247 13.3776C8.85339 13.8143 9.11856 14.2112 9.45285 14.5455C9.78714 14.8798 10.184 15.145 10.6208 15.3259C11.0575 15.5068 11.5257 15.5999 11.9984 15.5999C12.9532 15.5999 13.8689 15.2206 14.544 14.5455C15.2192 13.8704 15.5984 12.9547 15.5984 11.9999C15.5984 11.0451 15.2192 10.1294 14.544 9.45432C13.8689 8.77919 12.9532 8.3999 11.9984 8.3999ZM11.9984 9.9999C12.2611 9.9999 12.5212 10.0516 12.7638 10.1521C13.0065 10.2527 13.2269 10.4 13.4127 10.5857C13.5984 10.7714 13.7457 10.9919 13.8462 11.2345C13.9467 11.4772 13.9984 11.7373 13.9984 11.9999C13.9984 12.2625 13.9467 12.5226 13.8462 12.7653C13.7457 13.0079 13.5984 13.2284 13.4127 13.4141C13.2269 13.5998 13.0065 13.7472 12.7638 13.8477C12.5212 13.9482 12.2611 13.9999 11.9984 13.9999C11.468 13.9999 10.9593 13.7892 10.5842 13.4141C10.2092 13.039 9.99844 12.5303 9.99844 11.9999C9.99844 11.4695 10.2092 10.9608 10.5842 10.5857C10.9593 10.2106 11.468 9.9999 11.9984 9.9999Z" fill="black" fill-opacity="0.85"/>
</svg>
